<?xml version="1.0" encoding="UTF-8"?>
<svg id="Layer_1" data-name="Layer 1" xmlns="http://www.w3.org/2000/svg" viewBox="0 0 229.95 174.72">
  <defs>
    <style>
      .cls-1 {
        fill: #004790;
      }

      .cls-2 {
        fill: #666;
      }
    </style>
  </defs>
  <g>
    <path class="cls-1" d="M32.03,60.61c0-8.98,1.55-15.76,4.66-20.36,3.11-4.59,7.69-6.89,13.76-6.89s10.69,2.3,13.8,6.89c3.11,4.59,4.66,11.38,4.66,20.36s-1.55,15.73-4.66,20.32c-3.11,4.59-7.71,6.89-13.8,6.89s-10.66-2.3-13.76-6.89c-3.11-4.59-4.66-11.37-4.66-20.32ZM50.45,42.68c-2.65,0-4.58,1.41-5.8,4.24-1.22,2.82-1.83,7.39-1.83,13.69s.61,10.83,1.83,13.66c1.22,2.82,3.15,4.24,5.8,4.24s4.62-1.41,5.84-4.24c1.22-2.82,1.83-7.38,1.83-13.66s-.61-10.87-1.83-13.69c-1.22-2.82-3.16-4.24-5.84-4.24Z"/>
    <path class="cls-1" d="M76.96,34.31h11.11c8.58,0,14.75,2.04,18.53,6.13,3.77,4.09,5.66,10.78,5.66,20.06s-1.89,16.01-5.66,20.13c-3.77,4.11-9.95,6.17-18.53,6.17h-11.11v-52.49ZM87.33,43.66v33.79h2.81c4.08,0,6.98-1.28,8.72-3.85,1.73-2.57,2.6-6.93,2.6-13.1s-.87-10.45-2.6-13.01c-1.74-2.55-4.64-3.83-8.72-3.83h-2.81Z"/>
    <path class="cls-1" d="M154.09,86.8h-32.7v-52.49h32.7v9.14h-22.32v11.32h20.21v9.14h-20.21v13.75h22.32v9.14Z"/>
    <path class="cls-1" d="M163.02,34.31h11.14l14.62,38.14v-38.14h9.14v52.49h-11.07l-14.7-38.14v38.14h-9.14v-52.49Z"/>
  </g>
  <g>
    <path class="cls-2" d="M109.51,127.47v22.46h-6.5v-5.84c-1.38,2.34-3.12,4.07-5.22,5.19-2.1,1.11-4.65,1.67-7.65,1.67-4.01,0-7.21-1.13-9.6-3.39-2.39-2.26-3.59-5.29-3.59-9.09,0-4.38,1.47-7.71,4.41-9.98,2.94-2.27,7.26-3.41,12.96-3.41h8.68v-1.02c-.02-3.14-.82-5.42-2.39-6.84-1.57-1.42-4.08-2.13-7.52-2.13-2.2,0-4.43.32-6.68.95s-4.44,1.56-6.57,2.78v-6.47c2.39-.91,4.68-1.6,6.87-2.06,2.19-.46,4.32-.69,6.38-.69,3.26,0,6.04.48,8.35,1.44,2.31.96,4.18,2.4,5.61,4.32.89,1.17,1.52,2.62,1.9,4.34.37,1.72.56,4.31.56,7.75ZM96.96,130.14h-2.14c-3.77,0-6.62.66-8.53,1.99-1.91,1.32-2.87,3.3-2.87,5.92,0,2.37.71,4.21,2.14,5.52,1.43,1.31,3.41,1.97,5.94,1.97,3.56,0,6.36-1.24,8.4-3.71,2.04-2.47,3.07-5.89,3.09-10.25v-1.44h-6.05Z"/>
    <path class="cls-2" d="M129.79,115.59c1.03-1.92,2.46-3.4,4.27-4.43,1.82-1.03,3.92-1.55,6.31-1.55,4.73,0,8.46,1.82,11.18,5.47,2.72,3.64,4.08,8.67,4.08,15.06s-1.37,11.58-4.1,15.28c-2.73,3.69-6.47,5.54-11.23,5.54-2.34,0-4.41-.51-6.21-1.53s-3.23-2.5-4.31-4.45v4.96h-6.47v-54.7h6.47v20.36ZM148.81,130.28c0-5.02-.8-8.8-2.39-11.36-1.59-2.55-3.95-3.83-7.07-3.83s-5.52,1.28-7.14,3.85-2.43,6.35-2.43,11.34.81,8.74,2.43,11.32c1.62,2.58,4,3.87,7.14,3.87s5.47-1.28,7.07-3.83c1.59-2.55,2.39-6.34,2.39-11.36Z"/>
    <path class="cls-2" d="M184.39,138.99c0,3.61-1.05,6.39-3.15,8.35-2.1,1.95-5.08,2.93-8.95,2.93h-8.93v-4.33h8.23c2.11,0,3.69-.58,4.75-1.74,1.05-1.16,1.58-2.89,1.58-5.21v-33.83c0-3.41.99-5.92,2.97-7.53,1.98-1.61,5.07-2.42,9.26-2.42h7.77v4.25h-7.35c-2.32,0-3.93.38-4.83,1.12-.9.75-1.35,2.08-1.35,3.99v34.41Z"/>
    <path class="cls-2" d="M46.86,104.31c0-1.91-.45-3.24-1.35-3.99-.9-.75-2.51-1.13-4.83-1.13h-7.35v-4.25h7.77c4.2,0,7.28.81,9.26,2.42,1.98,1.61,2.97,4.12,2.97,7.53v33.83c0,2.31.53,4.05,1.58,5.21,1.05,1.16,2.64,1.74,4.75,1.74h8.23v4.33h-8.93c-3.87,0-6.85-.98-8.95-2.93-2.1-1.95-3.15-4.74-3.15-8.35v-34.41Z"/>
  </g>
</svg>